<svg width="626" height="568" viewBox="0 0 626 568" fill="none" xmlns="http://www.w3.org/2000/svg">
<path d="M498.432 399.32C466.812 366.585 433.377 334.325 401.922 301.59C438.208 264.833 507.526 193.57 510.762 190.335C482.502 162.075 451.683 126.43 438.946 113.693H316.002C288.287 142.803 259.823 171.782 232.401 201.111L328.767 201.108C334.582 194.865 340.872 187.913 346.887 181.908C367.482 181.761 390.002 181.795 410.532 181.795L291.219 303.805C323.245 336.79 355.171 370.184 388.362 402.01C369.284 422.5 349.097 441.955 329.737 462.183V567.075C385.925 511.169 441.186 454.146 498.432 399.32Z" fill="#F2EFDC"/>
<path d="M456.967 87.9305C483.617 117.391 512.482 148.199 539.712 177.249L607.471 113.292L506.666 0.0309753L83.502 0L0 87.907L456.967 87.9305Z" fill="#F2EFDC"/>
<g opacity="0.5" filter="url(#filter0_n_2324_177)">
<path d="M270.152 325.05C273.77 327.91 284.089 338.815 287.732 342.48L324.252 379.27L139.381 567.1H89.2516L34.7656 567.085C40.0626 560.61 52.1091 549.205 58.4426 542.665L109.426 490.065L270.152 325.05Z" fill="#F2EFDC"/>
</g>
<g opacity="0.5" filter="url(#filter1_n_2324_177)">
<path d="M532.102 211.011C536.412 214.676 544.627 223.392 549.067 227.773L625.752 227.577C625.552 250.345 625.827 273.31 625.847 296.1L575.752 296.085L515.432 296.105C505.572 285.89 491.447 271.975 481.127 262.365C498.257 245.382 515.247 228.264 532.102 211.011Z" fill="#F2EFDC"/>
</g>
<defs>
<filter id="filter0_n_2324_177" x="34.7656" y="325.05" width="289.486" height="242.05" filterUnits="userSpaceOnUse" color-interpolation-filters="sRGB">
<feFlood flood-opacity="0" result="BackgroundImageFix"/>
<feBlend mode="normal" in="SourceGraphic" in2="BackgroundImageFix" result="shape"/>
<feTurbulence type="fractalNoise" baseFrequency="0.82644623517990112 0.82644623517990112" stitchTiles="stitch" numOctaves="3" result="noise" seed="3982" />
<feComponentTransfer in="noise" result="coloredNoise1">
<feFuncR type="linear" slope="2" intercept="-0.5" />
<feFuncG type="linear" slope="2" intercept="-0.5" />
<feFuncB type="linear" slope="2" intercept="-0.5" />
<feFuncA type="discrete" tableValues="1 1 1 1 1 1 1 1 1 1 1 1 1 1 1 1 1 1 1 1 1 1 1 1 1 1 1 1 1 1 1 1 1 1 1 1 1 1 1 1 1 1 1 1 1 1 1 1 1 1 1 0 0 0 0 0 0 0 0 0 0 0 0 0 0 0 0 0 0 0 0 0 0 0 0 0 0 0 0 0 0 0 0 0 0 0 0 0 0 0 0 0 0 0 0 0 0 0 0 0 "/>
</feComponentTransfer>
<feComposite operator="in" in2="shape" in="coloredNoise1" result="noise1Clipped" />
<feComponentTransfer in="noise1Clipped" result="color1">
<feFuncA type="table" tableValues="0 0.15" />
</feComponentTransfer>
<feMerge result="effect1_noise_2324_177">
<feMergeNode in="shape" />
<feMergeNode in="color1" />
</feMerge>
</filter>
<filter id="filter1_n_2324_177" x="481.127" y="211.011" width="144.72" height="85.094" filterUnits="userSpaceOnUse" color-interpolation-filters="sRGB">
<feFlood flood-opacity="0" result="BackgroundImageFix"/>
<feBlend mode="normal" in="SourceGraphic" in2="BackgroundImageFix" result="shape"/>
<feTurbulence type="fractalNoise" baseFrequency="0.82644623517990112 0.82644623517990112" stitchTiles="stitch" numOctaves="3" result="noise" seed="3982" />
<feComponentTransfer in="noise" result="coloredNoise1">
<feFuncR type="linear" slope="2" intercept="-0.5" />
<feFuncG type="linear" slope="2" intercept="-0.5" />
<feFuncB type="linear" slope="2" intercept="-0.5" />
<feFuncA type="discrete" tableValues="1 1 1 1 1 1 1 1 1 1 1 1 1 1 1 1 1 1 1 1 1 1 1 1 1 1 1 1 1 1 1 1 1 1 1 1 1 1 1 1 1 1 1 1 1 1 1 1 1 1 1 0 0 0 0 0 0 0 0 0 0 0 0 0 0 0 0 0 0 0 0 0 0 0 0 0 0 0 0 0 0 0 0 0 0 0 0 0 0 0 0 0 0 0 0 0 0 0 0 0 "/>
</feComponentTransfer>
<feComposite operator="in" in2="shape" in="coloredNoise1" result="noise1Clipped" />
<feComponentTransfer in="noise1Clipped" result="color1">
<feFuncA type="table" tableValues="0 0.15" />
</feComponentTransfer>
<feMerge result="effect1_noise_2324_177">
<feMergeNode in="shape" />
<feMergeNode in="color1" />
</feMerge>
</filter>
</defs>
</svg>
